<mxfile host="app.diagrams.net" modified="2023-10-11T23:24:00.747Z" agent="Mozilla/5.0 (Windows NT 10.0; Win64; x64) AppleWebKit/537.36 (KHTML, like Gecko) Chrome/117.0.0.0 Safari/537.36" etag="QF6mMpFUVO3w_o9kHdYz" version="21.7.5" type="github">
  <diagram id="C5RBs43oDa-KdzZeNtuy" name="Page-1">
    <mxGraphModel dx="1434" dy="1919" grid="1" gridSize="10" guides="1" tooltips="1" connect="1" arrows="1" fold="1" page="1" pageScale="1" pageWidth="827" pageHeight="1169" math="0" shadow="0">
      <root>
        <mxCell id="WIyWlLk6GJQsqaUBKTNV-0" />
        <mxCell id="WIyWlLk6GJQsqaUBKTNV-1" parent="WIyWlLk6GJQsqaUBKTNV-0" />
        <mxCell id="MEQ1CT1Tf01OYSH90tUn-1" value="&lt;h1&gt;Website Content&lt;/h1&gt;&lt;div&gt;&lt;ul&gt;&lt;li&gt;ongoing project&lt;/li&gt;&lt;li&gt;past project&lt;/li&gt;&lt;li&gt;future project&lt;/li&gt;&lt;li&gt;moto, goal, values&lt;/li&gt;&lt;li&gt;contact&lt;/li&gt;&lt;li&gt;how to get involved&lt;/li&gt;&lt;li&gt;picture&lt;/li&gt;&lt;li&gt;video&lt;/li&gt;&lt;li&gt;&lt;br&gt;&lt;/li&gt;&lt;/ul&gt;&lt;/div&gt;" style="text;html=1;strokeColor=#d6b656;fillColor=#fff2cc;spacing=5;spacingTop=-20;whiteSpace=wrap;overflow=hidden;rounded=0;" vertex="1" parent="WIyWlLk6GJQsqaUBKTNV-1">
          <mxGeometry x="20" y="-985" width="250" height="190" as="geometry" />
        </mxCell>
        <mxCell id="MEQ1CT1Tf01OYSH90tUn-3" value="&lt;h1&gt;&lt;span style=&quot;background-color: initial;&quot;&gt;Design Requirement&lt;/span&gt;&lt;/h1&gt;&lt;h1&gt;&lt;ul&gt;&lt;li&gt;&lt;span style=&quot;font-size: 12px; font-weight: 400;&quot;&gt;Colors&amp;nbsp;&lt;/span&gt;&lt;/li&gt;&lt;li&gt;&lt;span style=&quot;font-size: 12px; font-weight: 400;&quot;&gt;font&lt;/span&gt;&lt;/li&gt;&lt;li&gt;&lt;span style=&quot;font-size: 12px; font-weight: 400;&quot;&gt;Logos&lt;/span&gt;&lt;/li&gt;&lt;li&gt;&lt;span style=&quot;font-size: 12px; font-weight: 400;&quot;&gt;Pictures&lt;/span&gt;&lt;/li&gt;&lt;li&gt;&lt;span style=&quot;font-size: 12px; font-weight: 400;&quot;&gt;videos&lt;/span&gt;&lt;/li&gt;&lt;/ul&gt;&lt;/h1&gt;" style="text;html=1;strokeColor=#b85450;fillColor=#f8cecc;spacing=5;spacingTop=-20;whiteSpace=wrap;overflow=hidden;rounded=0;" vertex="1" parent="WIyWlLk6GJQsqaUBKTNV-1">
          <mxGeometry x="560" y="-1020" width="262" height="220" as="geometry" />
        </mxCell>
        <mxCell id="MEQ1CT1Tf01OYSH90tUn-15" style="edgeStyle=orthogonalEdgeStyle;rounded=0;orthogonalLoop=1;jettySize=auto;html=1;" edge="1" parent="WIyWlLk6GJQsqaUBKTNV-1" source="MEQ1CT1Tf01OYSH90tUn-5" target="MEQ1CT1Tf01OYSH90tUn-8">
          <mxGeometry relative="1" as="geometry" />
        </mxCell>
        <mxCell id="MEQ1CT1Tf01OYSH90tUn-52" value="enter credential" style="edgeLabel;html=1;align=center;verticalAlign=middle;resizable=0;points=[];" vertex="1" connectable="0" parent="MEQ1CT1Tf01OYSH90tUn-15">
          <mxGeometry x="0.0667" y="1" relative="1" as="geometry">
            <mxPoint as="offset" />
          </mxGeometry>
        </mxCell>
        <mxCell id="MEQ1CT1Tf01OYSH90tUn-16" style="edgeStyle=orthogonalEdgeStyle;rounded=0;orthogonalLoop=1;jettySize=auto;html=1;entryX=0.5;entryY=0;entryDx=0;entryDy=0;" edge="1" parent="WIyWlLk6GJQsqaUBKTNV-1" source="MEQ1CT1Tf01OYSH90tUn-5" target="MEQ1CT1Tf01OYSH90tUn-6">
          <mxGeometry relative="1" as="geometry" />
        </mxCell>
        <mxCell id="MEQ1CT1Tf01OYSH90tUn-53" value="enter credential" style="edgeLabel;html=1;align=center;verticalAlign=middle;resizable=0;points=[];" vertex="1" connectable="0" parent="MEQ1CT1Tf01OYSH90tUn-16">
          <mxGeometry x="-0.3222" relative="1" as="geometry">
            <mxPoint y="1" as="offset" />
          </mxGeometry>
        </mxCell>
        <mxCell id="MEQ1CT1Tf01OYSH90tUn-5" value="User" style="shape=umlActor;verticalLabelPosition=bottom;verticalAlign=top;html=1;outlineConnect=0;" vertex="1" parent="WIyWlLk6GJQsqaUBKTNV-1">
          <mxGeometry x="381" y="-397.5" width="30" height="60" as="geometry" />
        </mxCell>
        <mxCell id="MEQ1CT1Tf01OYSH90tUn-17" style="edgeStyle=orthogonalEdgeStyle;rounded=0;orthogonalLoop=1;jettySize=auto;html=1;" edge="1" parent="WIyWlLk6GJQsqaUBKTNV-1" source="MEQ1CT1Tf01OYSH90tUn-6" target="MEQ1CT1Tf01OYSH90tUn-10">
          <mxGeometry relative="1" as="geometry" />
        </mxCell>
        <mxCell id="MEQ1CT1Tf01OYSH90tUn-6" value="Login page" style="whiteSpace=wrap;html=1;aspect=fixed;fillColor=#ffe6cc;strokeColor=#d79b00;" vertex="1" parent="WIyWlLk6GJQsqaUBKTNV-1">
          <mxGeometry x="511" y="-327.5" width="80" height="80" as="geometry" />
        </mxCell>
        <mxCell id="MEQ1CT1Tf01OYSH90tUn-19" style="edgeStyle=orthogonalEdgeStyle;rounded=0;orthogonalLoop=1;jettySize=auto;html=1;entryX=0.5;entryY=0;entryDx=0;entryDy=0;" edge="1" parent="WIyWlLk6GJQsqaUBKTNV-1" source="MEQ1CT1Tf01OYSH90tUn-8" target="MEQ1CT1Tf01OYSH90tUn-10">
          <mxGeometry relative="1" as="geometry" />
        </mxCell>
        <mxCell id="MEQ1CT1Tf01OYSH90tUn-8" value="Sign up" style="whiteSpace=wrap;html=1;aspect=fixed;fillColor=#ffe6cc;strokeColor=#d79b00;" vertex="1" parent="WIyWlLk6GJQsqaUBKTNV-1">
          <mxGeometry x="216" y="-327.5" width="80" height="80" as="geometry" />
        </mxCell>
        <mxCell id="MEQ1CT1Tf01OYSH90tUn-21" value="" style="edgeStyle=orthogonalEdgeStyle;rounded=0;orthogonalLoop=1;jettySize=auto;html=1;" edge="1" parent="WIyWlLk6GJQsqaUBKTNV-1" source="MEQ1CT1Tf01OYSH90tUn-10" target="MEQ1CT1Tf01OYSH90tUn-20">
          <mxGeometry relative="1" as="geometry" />
        </mxCell>
        <mxCell id="MEQ1CT1Tf01OYSH90tUn-23" style="edgeStyle=orthogonalEdgeStyle;rounded=0;orthogonalLoop=1;jettySize=auto;html=1;entryX=0.5;entryY=0;entryDx=0;entryDy=0;exitX=0.5;exitY=1;exitDx=0;exitDy=0;" edge="1" parent="WIyWlLk6GJQsqaUBKTNV-1" source="MEQ1CT1Tf01OYSH90tUn-10" target="MEQ1CT1Tf01OYSH90tUn-22">
          <mxGeometry relative="1" as="geometry" />
        </mxCell>
        <mxCell id="MEQ1CT1Tf01OYSH90tUn-54" value="enter email" style="edgeLabel;html=1;align=center;verticalAlign=middle;resizable=0;points=[];" vertex="1" connectable="0" parent="MEQ1CT1Tf01OYSH90tUn-23">
          <mxGeometry x="0.0595" y="-1" relative="1" as="geometry">
            <mxPoint as="offset" />
          </mxGeometry>
        </mxCell>
        <mxCell id="MEQ1CT1Tf01OYSH90tUn-30" style="edgeStyle=orthogonalEdgeStyle;rounded=0;orthogonalLoop=1;jettySize=auto;html=1;entryX=0.5;entryY=0;entryDx=0;entryDy=0;" edge="1" parent="WIyWlLk6GJQsqaUBKTNV-1" source="MEQ1CT1Tf01OYSH90tUn-10" target="MEQ1CT1Tf01OYSH90tUn-29">
          <mxGeometry relative="1" as="geometry" />
        </mxCell>
        <mxCell id="MEQ1CT1Tf01OYSH90tUn-45" style="edgeStyle=orthogonalEdgeStyle;rounded=0;orthogonalLoop=1;jettySize=auto;html=1;" edge="1" parent="WIyWlLk6GJQsqaUBKTNV-1" source="MEQ1CT1Tf01OYSH90tUn-10" target="MEQ1CT1Tf01OYSH90tUn-24">
          <mxGeometry relative="1" as="geometry">
            <Array as="points">
              <mxPoint x="356" y="-160" />
              <mxPoint x="356" y="-80" />
              <mxPoint x="296" y="-80" />
            </Array>
          </mxGeometry>
        </mxCell>
        <mxCell id="MEQ1CT1Tf01OYSH90tUn-10" value="home page" style="whiteSpace=wrap;html=1;aspect=fixed;fillColor=#f8cecc;strokeColor=#b85450;" vertex="1" parent="WIyWlLk6GJQsqaUBKTNV-1">
          <mxGeometry x="375" y="-217.5" width="80" height="80" as="geometry" />
        </mxCell>
        <mxCell id="MEQ1CT1Tf01OYSH90tUn-27" style="edgeStyle=orthogonalEdgeStyle;rounded=0;orthogonalLoop=1;jettySize=auto;html=1;entryX=0.45;entryY=-0.017;entryDx=0;entryDy=0;entryPerimeter=0;" edge="1" parent="WIyWlLk6GJQsqaUBKTNV-1" source="MEQ1CT1Tf01OYSH90tUn-20" target="MEQ1CT1Tf01OYSH90tUn-24">
          <mxGeometry relative="1" as="geometry" />
        </mxCell>
        <mxCell id="MEQ1CT1Tf01OYSH90tUn-34" style="edgeStyle=orthogonalEdgeStyle;rounded=0;orthogonalLoop=1;jettySize=auto;html=1;entryX=0;entryY=0.5;entryDx=0;entryDy=0;" edge="1" parent="WIyWlLk6GJQsqaUBKTNV-1" source="MEQ1CT1Tf01OYSH90tUn-20" target="MEQ1CT1Tf01OYSH90tUn-32">
          <mxGeometry relative="1" as="geometry">
            <Array as="points">
              <mxPoint x="141" y="27.5" />
              <mxPoint x="171" y="27.5" />
              <mxPoint x="171" y="237.5" />
            </Array>
          </mxGeometry>
        </mxCell>
        <mxCell id="MEQ1CT1Tf01OYSH90tUn-20" value="project:&lt;br&gt;&lt;ol&gt;&lt;li style=&quot;&quot;&gt;on going&lt;/li&gt;&lt;li style=&quot;&quot;&gt;past project&lt;/li&gt;&lt;li style=&quot;&quot;&gt;future project&lt;/li&gt;&lt;/ol&gt;" style="whiteSpace=wrap;html=1;aspect=fixed;align=center;fillColor=#f8cecc;strokeColor=#b85450;" vertex="1" parent="WIyWlLk6GJQsqaUBKTNV-1">
          <mxGeometry x="81" y="-157.5" width="120" height="120" as="geometry" />
        </mxCell>
        <mxCell id="MEQ1CT1Tf01OYSH90tUn-28" style="edgeStyle=orthogonalEdgeStyle;rounded=0;orthogonalLoop=1;jettySize=auto;html=1;" edge="1" parent="WIyWlLk6GJQsqaUBKTNV-1" source="MEQ1CT1Tf01OYSH90tUn-22" target="MEQ1CT1Tf01OYSH90tUn-24">
          <mxGeometry relative="1" as="geometry" />
        </mxCell>
        <mxCell id="MEQ1CT1Tf01OYSH90tUn-22" value="&lt;br&gt;how to get involve/ learn more" style="whiteSpace=wrap;html=1;aspect=fixed;align=center;fillColor=#f8cecc;strokeColor=#b85450;" vertex="1" parent="WIyWlLk6GJQsqaUBKTNV-1">
          <mxGeometry x="476" y="10" width="120" height="120" as="geometry" />
        </mxCell>
        <mxCell id="MEQ1CT1Tf01OYSH90tUn-24" value="Donate/support" style="whiteSpace=wrap;html=1;aspect=fixed;align=center;fillColor=#f8cecc;strokeColor=#b85450;" vertex="1" parent="WIyWlLk6GJQsqaUBKTNV-1">
          <mxGeometry x="196" y="62.5" width="120" height="120" as="geometry" />
        </mxCell>
        <mxCell id="MEQ1CT1Tf01OYSH90tUn-35" style="edgeStyle=orthogonalEdgeStyle;rounded=0;orthogonalLoop=1;jettySize=auto;html=1;entryX=1;entryY=0.5;entryDx=0;entryDy=0;exitX=0.5;exitY=1;exitDx=0;exitDy=0;" edge="1" parent="WIyWlLk6GJQsqaUBKTNV-1" source="MEQ1CT1Tf01OYSH90tUn-29" target="MEQ1CT1Tf01OYSH90tUn-32">
          <mxGeometry relative="1" as="geometry" />
        </mxCell>
        <mxCell id="MEQ1CT1Tf01OYSH90tUn-56" style="edgeStyle=orthogonalEdgeStyle;rounded=0;orthogonalLoop=1;jettySize=auto;html=1;" edge="1" parent="WIyWlLk6GJQsqaUBKTNV-1" source="MEQ1CT1Tf01OYSH90tUn-29">
          <mxGeometry relative="1" as="geometry">
            <mxPoint x="536" as="targetPoint" />
          </mxGeometry>
        </mxCell>
        <mxCell id="MEQ1CT1Tf01OYSH90tUn-29" value="About Us" style="whiteSpace=wrap;html=1;aspect=fixed;align=center;" vertex="1" parent="WIyWlLk6GJQsqaUBKTNV-1">
          <mxGeometry x="581" y="-157.5" width="120" height="120" as="geometry" />
        </mxCell>
        <mxCell id="MEQ1CT1Tf01OYSH90tUn-31" value="Contact us&amp;nbsp;" style="rhombus;whiteSpace=wrap;html=1;fillColor=#e1d5e7;strokeColor=#9673a6;" vertex="1" parent="WIyWlLk6GJQsqaUBKTNV-1">
          <mxGeometry x="691" y="-357.5" width="100" height="110" as="geometry" />
        </mxCell>
        <mxCell id="MEQ1CT1Tf01OYSH90tUn-32" value="Social Media" style="whiteSpace=wrap;html=1;aspect=fixed;align=center;" vertex="1" parent="WIyWlLk6GJQsqaUBKTNV-1">
          <mxGeometry x="381" y="182.5" width="120" height="120" as="geometry" />
        </mxCell>
        <mxCell id="MEQ1CT1Tf01OYSH90tUn-37" value="" style="rounded=0;whiteSpace=wrap;html=1;fillColor=#ffe6cc;strokeColor=#d79b00;" vertex="1" parent="WIyWlLk6GJQsqaUBKTNV-1">
          <mxGeometry x="41" y="-327.5" width="10" height="15" as="geometry" />
        </mxCell>
        <mxCell id="MEQ1CT1Tf01OYSH90tUn-38" value="Optional" style="text;html=1;align=center;verticalAlign=middle;resizable=0;points=[];autosize=1;strokeColor=none;fillColor=none;" vertex="1" parent="WIyWlLk6GJQsqaUBKTNV-1">
          <mxGeometry x="51" y="-335" width="70" height="30" as="geometry" />
        </mxCell>
        <mxCell id="MEQ1CT1Tf01OYSH90tUn-41" value="" style="rhombus;whiteSpace=wrap;html=1;fillColor=#e1d5e7;strokeColor=#9673a6;" vertex="1" parent="WIyWlLk6GJQsqaUBKTNV-1">
          <mxGeometry x="36" y="-305" width="20" height="20" as="geometry" />
        </mxCell>
        <mxCell id="MEQ1CT1Tf01OYSH90tUn-42" value="all pages" style="text;html=1;align=center;verticalAlign=middle;resizable=0;points=[];autosize=1;strokeColor=none;fillColor=none;" vertex="1" parent="WIyWlLk6GJQsqaUBKTNV-1">
          <mxGeometry x="51" y="-310" width="70" height="30" as="geometry" />
        </mxCell>
        <mxCell id="MEQ1CT1Tf01OYSH90tUn-43" value="&lt;b&gt;&lt;font style=&quot;font-size: 27px;&quot;&gt;User Map&lt;/font&gt;&lt;/b&gt;" style="text;html=1;align=center;verticalAlign=middle;resizable=0;points=[];autosize=1;strokeColor=none;fillColor=none;" vertex="1" parent="WIyWlLk6GJQsqaUBKTNV-1">
          <mxGeometry x="326" y="-520" width="150" height="50" as="geometry" />
        </mxCell>
        <mxCell id="MEQ1CT1Tf01OYSH90tUn-48" value="&lt;div style=&quot;font-size: 15px;&quot;&gt;&lt;div&gt;&lt;b style=&quot;border-color: var(--border-color); font-size: 21px;&quot;&gt;Who is the User&lt;/b&gt;&lt;br&gt;&lt;/div&gt;&lt;ul&gt;&lt;li&gt;what language does he speak?&lt;/li&gt;&lt;li&gt;where is he from?&lt;/li&gt;&lt;li&gt;what device does he use?&lt;/li&gt;&lt;li&gt;how did he learn about us?&lt;/li&gt;&lt;li&gt;what contribution can he make?&lt;/li&gt;&lt;/ul&gt;&lt;/div&gt;" style="text;html=1;strokeColor=none;fillColor=none;align=center;verticalAlign=middle;whiteSpace=wrap;rounded=0;" vertex="1" parent="WIyWlLk6GJQsqaUBKTNV-1">
          <mxGeometry x="257.5" y="-664" width="281" height="80" as="geometry" />
        </mxCell>
        <mxCell id="MEQ1CT1Tf01OYSH90tUn-51" value="&lt;span style=&quot;font-size: 27px;&quot;&gt;&lt;b&gt;Foundation website&lt;br&gt;&lt;/b&gt;&lt;/span&gt;" style="text;html=1;align=center;verticalAlign=middle;resizable=0;points=[];autosize=1;strokeColor=none;fillColor=none;" vertex="1" parent="WIyWlLk6GJQsqaUBKTNV-1">
          <mxGeometry x="259" y="-1150" width="280" height="50" as="geometry" />
        </mxCell>
        <mxCell id="MEQ1CT1Tf01OYSH90tUn-57" value="" style="rounded=0;whiteSpace=wrap;html=1;fillColor=#f8cecc;strokeColor=#b85450;" vertex="1" parent="WIyWlLk6GJQsqaUBKTNV-1">
          <mxGeometry x="41" y="-270" width="10" height="15" as="geometry" />
        </mxCell>
        <mxCell id="MEQ1CT1Tf01OYSH90tUn-58" value="important" style="text;html=1;align=center;verticalAlign=middle;resizable=0;points=[];autosize=1;strokeColor=none;fillColor=none;" vertex="1" parent="WIyWlLk6GJQsqaUBKTNV-1">
          <mxGeometry x="51" y="-280" width="70" height="30" as="geometry" />
        </mxCell>
        <mxCell id="MEQ1CT1Tf01OYSH90tUn-60" value="&lt;div&gt;&lt;b style=&quot;border-color: var(--border-color); text-align: center;&quot;&gt;&lt;font style=&quot;border-color: var(--border-color); font-size: 23px;&quot;&gt;Software requirement&lt;/font&gt;&lt;/b&gt;&lt;span style=&quot;font-size: 14px;&quot;&gt;&lt;br&gt;&lt;/span&gt;&lt;/div&gt;&lt;ul style=&quot;font-size: 14px;&quot;&gt;&lt;li&gt;FrontEnd&lt;/li&gt;&lt;ul&gt;&lt;li&gt;programming language&lt;/li&gt;&lt;ul&gt;&lt;li&gt;style&lt;/li&gt;&lt;li&gt;script(framework)&lt;/li&gt;&lt;/ul&gt;&lt;/ul&gt;&lt;li&gt;BackEnd&lt;/li&gt;&lt;ul&gt;&lt;li&gt;language&lt;/li&gt;&lt;li&gt;database system&lt;/li&gt;&lt;li&gt;server/hosting/domain&lt;/li&gt;&lt;/ul&gt;&lt;/ul&gt;" style="whiteSpace=wrap;html=1;aspect=fixed;align=left;fillColor=#f8cecc;strokeColor=#b85450;" vertex="1" parent="WIyWlLk6GJQsqaUBKTNV-1">
          <mxGeometry x="288.5" y="-1030" width="250" height="250" as="geometry" />
        </mxCell>
      </root>
    </mxGraphModel>
  </diagram>
</mxfile>
